<?xml version="1.0" standalone="no"?>
<!DOCTYPE svg PUBLIC "-//W3C//DTD SVG 20010904//EN"
 "http://www.w3.org/TR/2001/REC-SVG-20010904/DTD/svg10.dtd">
<svg version="1.0" xmlns="http://www.w3.org/2000/svg"
 width="512.000000pt" height="512.000000pt" viewBox="0 0 512.000000 512.000000"
 preserveAspectRatio="xMidYMid meet">
<metadata>
Created by potrace 1.14, written by Peter Selinger 2001-2017
</metadata>
<g transform="translate(0.000000,512.000000) scale(0.100000,-0.100000)"
fill="#000000" stroke="none">
<path d="M663 3638 c4 -1607 0 -1501 58 -1773 75 -359 257 -722 478 -957 188
-200 577 -490 921 -687 172 -99 386 -202 430 -208 121 -17 1063 576 1326 833
315 309 510 744 574 1284 6 53 10 629 10 1537 l0 1453 -1900 0 -1901 0 4
-1482z m3667 1327 c0 -13 -203 -15 -1765 -15 -1562 0 -1765 2 -1765 15 0 13
203 15 1765 15 1562 0 1765 -2 1765 -15z m-2310 -116 c102 -45 163 -143 162
-260 0 -82 -25 -142 -79 -196 -61 -61 -123 -86 -207 -86 -222 0 -360 217 -263
410 71 139 240 197 387 132z m-918 -111 l3 -122 98 122 98 122 44 0 c25 0 45
-2 45 -5 0 -3 -43 -58 -95 -122 l-94 -116 19 -26 c10 -15 72 -82 137 -149
l118 -122 -64 0 -64 0 -51 53 c-29 28 -84 88 -124 132 l-72 80 0 -132 0 -133
-50 0 -50 0 0 270 0 270 50 0 49 0 3 -122z m1601 108 c106 -45 115 -178 15
-243 -24 -17 -35 -30 -30 -37 54 -72 141 -172 178 -205 l47 -41 -59 0 c-39 0
-68 6 -86 18 -22 14 -218 253 -218 266 0 2 18 6 41 10 55 9 99 52 99 99 0 48
-26 68 -100 74 l-61 6 3 -237 3 -237 -50 3 -50 3 -3 255 c-1 140 0 260 3 267
7 19 225 18 268 -1z m722 -26 l0 -35 -107 -3 -108 -3 0 -64 0 -65 86 0 85 0
-3 -37 -3 -38 -82 -3 -83 -3 0 -84 0 -85 125 0 125 0 0 -40 0 -40 -175 0 -175
0 0 270 0 271 158 -3 157 -3 0 -35z m647 -225 c58 -143 107 -263 107 -267 1
-5 -23 -8 -53 -8 l-53 0 -34 93 -34 92 -100 0 -100 0 -34 -92 -34 -93 -45 0
c-31 0 -43 4 -39 13 18 47 180 441 196 480 l21 48 47 -3 48 -3 107 -260z m258
-390 c0 -13 -203 -15 -1765 -15 -1562 0 -1765 2 -1765 15 0 13 203 15 1765 15
1562 0 1765 -2 1765 -15z m-3280 -203 c4 -88 8 -106 24 -118 27 -19 59 -18 85
4 18 15 21 30 23 117 3 81 6 100 18 100 12 0 16 -20 18 -108 3 -103 2 -108
-22 -132 -21 -21 -35 -25 -80 -25 -30 0 -62 3 -71 6 -31 12 -45 59 -45 157 0
97 4 110 30 105 12 -3 16 -24 20 -106z m472 16 l73 -93 5 90 c4 71 8 90 20 90
12 0 15 -23 18 -132 2 -127 2 -133 -17 -133 -14 0 -45 31 -93 92 l-73 93 -3
-93 c-2 -84 -5 -92 -22 -92 -19 0 -20 7 -20 128 0 71 3 132 7 135 17 17 38 0
105 -85z m346 -47 l3 -132 -23 3 c-22 3 -23 7 -26 127 -2 93 1 126 10 133 28
17 33 -2 36 -131z m199 128 c6 -6 23 -48 39 -95 16 -46 31 -84 35 -84 3 0 16
30 29 68 32 92 48 122 65 122 22 0 19 -12 -32 -147 -40 -106 -50 -123 -68
-123 -19 0 -29 17 -69 123 -25 68 -46 129 -46 135 0 15 32 16 47 1z m481 -11
c3 -15 -4 -18 -47 -18 l-51 0 0 -35 c0 -34 1 -35 40 -35 29 0 40 -4 40 -15 0
-11 -11 -15 -40 -15 l-40 0 0 -45 0 -45 61 0 c52 0 60 -2 57 -17 -3 -15 -16
-18 -86 -21 l-82 -3 0 129 c0 71 3 132 7 136 4 4 37 6 72 4 53 -2 66 -6 69
-20z m334 -5 c26 -23 23 -69 -7 -97 l-25 -23 56 -61 56 -62 -29 0 c-30 0 -63
28 -117 102 l-27 36 28 14 c37 18 44 63 11 72 -48 12 -48 12 -48 -109 l0 -115
-25 0 -25 0 0 128 c0 71 3 132 8 136 12 13 124 -3 144 -21z m342 21 c9 -3 16
-14 16 -24 0 -15 -8 -18 -52 -16 -47 1 -53 -1 -56 -20 -2 -17 9 -27 54 -50 66
-33 82 -59 65 -102 -15 -37 -48 -52 -111 -52 -39 0 -52 4 -60 19 -5 11 -10 22
-10 24 0 2 28 3 63 3 60 -1 62 0 62 24 0 20 -11 31 -52 53 -59 31 -78 57 -69
93 11 41 96 69 150 48z m256 -129 c0 -128 -1 -135 -20 -135 -19 0 -20 7 -20
128 0 130 2 142 27 142 10 0 13 -29 13 -135z m358 113 c3 -15 -4 -18 -32 -18
l-36 0 0 -115 0 -115 -25 0 -25 0 0 115 0 115 -35 0 c-22 0 -35 5 -35 13 0 25
13 28 99 25 72 -3 86 -6 89 -20z m189 -33 l36 -56 31 48 c33 52 44 63 64 63
21 0 14 -18 -33 -88 -41 -60 -45 -73 -45 -125 0 -55 -1 -58 -22 -55 -20 3 -23
10 -26 61 -3 49 -10 69 -47 127 -24 37 -41 71 -38 74 19 18 46 1 80 -49z m301
-297 c-4 -10 -369 -14 -1771 -16 -1567 -2 -1767 0 -1767 13 0 13 202 15 1771
15 1412 0 1770 -3 1767 -12z m-1 -900 c-4 -713 -5 -748 -26 -858 -84 -444
-236 -768 -481 -1024 -194 -203 -724 -565 -1123 -767 l-137 -70 -113 54 c-413
197 -976 595 -1188 839 -218 253 -366 592 -441 1012 -21 115 -22 157 -25 839
l-4 717 1771 0 1771 0 -4 -742z"/>
<path d="M1820 4789 c-36 -14 -69 -48 -92 -93 -31 -61 -23 -170 17 -227 49
-69 76 -84 154 -84 59 0 72 4 105 29 92 69 103 225 23 322 -17 20 -45 43 -63
50 -38 16 -108 17 -144 3z"/>
<path d="M3891 4729 c-5 -13 -18 -48 -30 -77 -12 -29 -21 -55 -21 -57 0 -3 27
-5 60 -5 70 0 71 1 34 91 -32 78 -31 77 -43 48z"/>
<path d="M3020 3314 c-198 -77 -185 -74 -297 -74 -100 0 -113 -2 -173 -31 -36
-17 -92 -39 -125 -51 -97 -32 -152 -67 -213 -137 -36 -40 -90 -86 -147 -122
-189 -122 -215 -150 -264 -289 -32 -90 -70 -151 -119 -189 -35 -27 -115 -142
-139 -200 -8 -19 -31 -54 -51 -78 -35 -42 -39 -44 -75 -39 -21 4 -79 19 -128
35 -49 16 -87 26 -84 21 8 -13 130 -69 173 -79 49 -11 57 -15 47 -30 -10 -17
-74 -13 -150 10 -105 31 -115 32 -60 4 28 -13 75 -30 105 -36 109 -22 98 -29
-40 -24 -74 2 -151 7 -170 10 -25 3 -20 0 15 -10 28 -8 83 -18 123 -21 39 -4
72 -10 72 -14 0 -14 -84 -29 -135 -24 -46 4 -48 3 -20 -8 27 -10 28 -12 10
-19 -13 -5 -5 -6 20 -3 22 3 83 -1 135 -8 l94 -14 -47 -27 c-36 -21 -66 -29
-129 -35 l-83 -7 60 -5 60 -5 -47 -28 c-27 -16 -48 -31 -48 -33 0 -5 42 12 92
37 38 18 226 53 237 43 5 -5 -41 -73 -72 -106 -14 -16 -22 -28 -17 -28 18 0
88 70 100 101 12 27 17 30 43 25 16 -3 47 -22 68 -41 22 -19 46 -35 54 -35 8
0 21 -12 29 -27 20 -38 85 -100 119 -112 31 -12 87 -14 111 -5 11 4 7 12 -19
35 -18 16 -38 43 -44 60 -10 31 -10 31 17 24 88 -22 174 -96 226 -194 50 -96
49 -110 -10 -77 -26 14 -48 26 -50 26 -2 0 -4 -14 -4 -30 0 -41 22 -90 64
-146 24 -31 36 -58 36 -79 0 -23 8 -37 30 -53 18 -14 30 -32 30 -46 0 -32 21
-48 124 -95 137 -64 214 -52 321 50 l55 52 0 112 c0 170 33 245 108 245 35 0
190 -64 215 -89 6 -6 18 -11 27 -11 9 0 27 -11 39 -24 12 -13 37 -32 56 -42
l34 -18 29 27 c15 15 35 27 44 27 24 0 48 28 48 56 0 16 6 24 18 24 10 0 27 6
37 14 19 13 18 16 -21 53 -59 55 -90 117 -98 193 -4 36 -15 73 -23 82 -13 14
-15 32 -9 88 5 57 3 70 -8 70 -8 0 -17 -12 -20 -27 -14 -69 -24 -192 -19 -234
7 -63 -13 -84 -76 -75 -24 3 -53 13 -62 22 -10 9 -25 14 -34 11 -12 -5 -13
-12 -5 -33 16 -41 -2 -53 -45 -30 -62 34 -110 137 -71 152 8 3 28 -2 45 -10
37 -20 201 -22 219 -4 16 16 15 43 -2 57 -7 6 -19 33 -26 59 -7 26 -23 58 -35
72 -13 14 -28 35 -35 48 -6 14 -37 35 -73 51 -34 15 -68 35 -74 43 -8 9 -12
43 -10 95 2 67 -1 84 -16 101 -15 17 -18 29 -12 64 24 142 23 247 -5 300 -11
21 -20 47 -20 58 0 10 -5 22 -11 26 -6 3 -19 26 -29 50 -11 24 -24 44 -30 44
-15 0 -12 -66 4 -79 7 -6 16 -39 20 -74 8 -79 -12 -141 -59 -187 -42 -41 -43
-55 -8 -92 26 -28 26 -28 10 -63 -20 -42 -16 -56 26 -75 17 -8 42 -31 55 -50
20 -29 23 -44 19 -88 -3 -46 -8 -58 -35 -79 -18 -13 -32 -31 -32 -38 0 -23 40
-43 99 -51 63 -8 94 -33 89 -72 -3 -24 -9 -28 -49 -33 -49 -7 -98 -29 -116
-51 -6 -7 -12 -49 -14 -93 -4 -76 -7 -85 -49 -150 l-45 -69 -5 -124 -5 -124
-57 -53 c-31 -29 -77 -61 -102 -70 -45 -17 -46 -17 -111 10 -68 29 -110 68
-121 112 -12 48 33 56 108 18 27 -14 58 -25 69 -25 36 0 88 28 139 76 l51 47
-7 76 c-8 92 -15 111 -61 178 -30 44 -37 64 -44 130 -8 84 -41 160 -98 230
-17 20 -33 50 -37 66 -4 21 -17 34 -47 49 -133 64 -152 76 -157 104 -7 39 -34
53 -58 31 -11 -10 -22 -30 -25 -45 -8 -39 -45 -82 -71 -82 -12 0 -33 -8 -46
-17 -14 -10 -31 -18 -38 -20 -8 -1 -22 -9 -31 -17 -18 -16 -52 -21 -64 -10 -9
9 4 34 18 34 18 0 132 87 139 106 5 13 0 12 -27 -4 -91 -55 -127 -73 -127 -64
0 14 89 93 148 131 28 18 52 35 52 38 0 13 -151 -78 -195 -119 -43 -39 -60
-48 -89 -48 -29 0 -36 -4 -40 -22 -18 -87 -13 -97 33 -73 38 19 41 19 41 -4 0
-13 -14 -24 -45 -36 -26 -9 -44 -22 -42 -28 2 -6 25 -17 51 -23 26 -7 50 -15
53 -18 9 -9 -41 -24 -105 -32 -56 -6 -62 -5 -86 19 -30 30 -32 55 -11 98 9 16
13 34 9 40 -3 6 1 18 9 27 8 9 17 29 21 44 3 15 20 43 36 62 56 63 29 79 -29
17 -20 -21 -46 -44 -58 -50 -24 -12 -82 -15 -107 -5 -24 9 -19 33 9 44 13 5
30 18 37 30 18 28 31 25 24 -5 -10 -39 6 -29 42 26 26 40 29 48 13 40 -36 -20
-44 -14 -38 28 7 59 57 122 133 172 37 24 75 57 85 73 l18 29 6 -26 c4 -15 11
-27 15 -27 17 0 61 63 55 79 -4 9 -9 36 -12 61 -4 35 0 53 17 83 32 54 15 59
-32 9 -46 -50 -68 -45 -45 9 17 40 29 52 93 84 67 34 75 33 72 -12 l-3 -38 60
4 c72 4 105 15 105 36 0 10 -10 15 -29 15 -35 0 -46 13 -32 39 8 14 7 22 -5
32 -14 12 -14 15 6 31 42 34 118 15 149 -38 25 -42 70 -47 95 -12 38 54 10
108 -66 129 -24 6 -49 13 -57 15 -23 7 24 49 69 63 32 9 46 9 79 -5 25 -10 52
-14 67 -10 22 6 25 11 22 36 l-5 30 59 0 c54 0 58 1 58 24 0 13 8 34 19 47
l18 23 49 -19 c73 -27 93 -43 104 -84 7 -28 20 -43 57 -65 27 -16 66 -30 88
-33 22 -2 55 -6 73 -8 63 -8 32 32 -74 95 -33 19 -71 97 -61 124 3 8 21 17 39
21 18 4 52 16 75 26 28 14 57 19 90 17 44 -3 48 -5 51 -31 4 -34 20 -41 128
-57 96 -15 134 -30 191 -76 33 -27 43 -42 43 -65 0 -16 -3 -29 -7 -29 -4 0
-26 18 -49 41 -47 46 -111 66 -239 76 -53 4 -78 11 -102 29 -42 32 -93 43 -93
21 0 -9 13 -23 29 -31 37 -20 45 -43 25 -73 -21 -33 -12 -51 30 -58 19 -4 42
-16 52 -26 20 -23 52 -24 79 -4 12 10 30 13 51 9 21 -4 40 0 57 11 14 9 36 15
49 13 22 -3 22 -4 -7 -18 -16 -8 -31 -24 -33 -34 -4 -18 0 -18 49 -11 81 13
139 9 157 -8 14 -15 12 -20 -21 -59 -68 -80 -128 -153 -178 -215 -54 -69 -74
-76 -116 -43 -14 11 -33 20 -43 20 -38 0 -76 23 -103 60 -27 39 -47 47 -81 34
-20 -8 -21 -49 -1 -104 8 -23 15 -60 15 -81 0 -26 6 -41 17 -48 15 -8 19 -30
25 -123 6 -101 4 -117 -14 -154 -23 -47 -21 -87 5 -92 9 -2 36 13 59 32 64 55
86 157 65 292 -8 47 -6 54 14 73 25 23 78 28 83 9 2 -7 14 -47 26 -89 37 -123
12 -202 -99 -320 -38 -39 -57 -67 -51 -73 12 -12 74 -10 99 4 11 5 28 10 38
10 11 0 32 14 48 30 16 17 32 30 37 30 4 0 8 -26 8 -57 0 -67 22 -122 70 -176
31 -36 63 -47 75 -27 3 5 -8 35 -24 67 -38 75 -46 130 -30 194 10 38 20 54 41
65 19 10 28 22 28 38 0 26 24 51 40 41 5 -3 10 -12 10 -19 0 -20 37 -49 54
-43 8 3 22 17 31 31 16 24 16 26 -14 64 -28 34 -31 43 -25 84 5 37 2 56 -15
89 -19 35 -20 46 -11 75 7 19 9 47 5 63 -4 20 -1 34 10 45 21 20 18 21 57 -14
51 -47 130 -55 136 -13 2 17 -8 27 -49 50 -29 15 -54 33 -56 39 -2 7 15 14 41
18 26 4 50 14 55 24 5 9 26 21 48 27 30 8 40 17 47 41 5 17 22 38 38 47 35 20
32 37 -8 56 -64 29 -75 40 -64 61 6 10 26 22 44 26 35 6 51 31 39 60 -6 16
-63 34 -108 34 -16 0 -55 12 -85 26 -30 14 -84 36 -120 48 -36 13 -123 44
-195 71 -127 47 -133 48 -260 51 -71 2 -137 1 -145 -2z m-877 -1324 c5 -18 11
-19 64 -14 67 6 112 -4 127 -29 15 -24 -9 -39 -48 -31 -17 4 -73 8 -125 9 -85
2 -104 -1 -166 -26 -80 -32 -126 -39 -132 -22 -5 15 59 43 99 43 27 0 57 17
121 68 35 27 53 28 60 2z m-712 -38 c8 -21 6 -22 -58 -22 -72 0 -74 6 -10 31
51 20 58 19 68 -9z m58 -76 c9 -11 7 -15 -11 -20 -13 -3 -34 -6 -48 -6 l-25 0
25 20 c30 23 44 25 59 6z m589 -141 c29 -41 47 -75 42 -75 -40 0 -128 60 -152
103 -12 23 6 47 36 47 16 0 36 -21 74 -75z m227 24 c76 -59 104 -96 112 -144
6 -35 23 -49 23 -19 0 8 5 24 10 34 15 29 40 14 40 -25 0 -18 7 -51 15 -74 8
-23 17 -63 21 -89 5 -39 2 -52 -16 -74 -24 -31 -51 -36 -70 -14 -6 8 -16 47
-22 85 -11 75 -11 75 -108 149 -22 18 -30 32 -30 55 0 20 -13 51 -36 84 -34
49 -40 83 -14 83 6 0 40 -23 75 -51z m-443 -69 c20 -33 32 -60 26 -60 -21 0
-95 49 -112 75 -20 31 -14 45 22 45 22 0 34 -11 64 -60z m540 -350 c5 0 8 -15
6 -32 -4 -39 -30 -48 -60 -21 -33 29 -78 105 -78 131 0 22 4 20 61 -27 33 -28
65 -51 71 -51z m-208 33 c45 -30 56 -42 56 -65 0 -44 -19 -43 -66 3 -40 39
-73 99 -55 99 5 0 34 -17 65 -37z"/>
<path d="M2610 2959 c-35 -36 -70 -99 -70 -127 0 -26 17 -38 65 -46 34 -6 44
-3 60 13 20 23 46 27 77 10 13 -7 24 -7 30 -1 14 14 -18 70 -47 84 -15 7 -27
23 -31 42 -13 64 -37 71 -84 25z"/>
<path d="M3195 2944 c-116 -35 -88 -75 30 -43 57 15 75 26 75 45 0 18 -40 17
-105 -2z"/>
<path d="M3306 2854 c-15 -9 -67 -19 -115 -22 -85 -7 -86 -7 -89 -35 -11 -91
168 -135 207 -51 6 13 14 24 19 24 16 0 72 63 72 81 0 24 -52 25 -94 3z"/>
<path d="M2405 2765 c-21 -13 -46 -39 -55 -57 -13 -29 -21 -34 -65 -38 -28 -3
-61 -12 -74 -19 -16 -9 -44 -12 -81 -8 -50 4 -62 1 -103 -24 -41 -25 -48 -36
-63 -86 -9 -32 -23 -65 -30 -74 -8 -8 -14 -21 -14 -27 0 -17 67 -15 131 4 55
16 68 27 187 158 36 40 47 47 75 44 31 -3 32 -4 31 -51 0 -33 -7 -56 -24 -80
-21 -27 -24 -42 -22 -96 1 -35 -3 -78 -9 -96 -11 -29 -9 -36 11 -64 l22 -32
-21 -23 c-11 -12 -21 -26 -21 -31 0 -17 100 -105 119 -105 28 0 51 10 51 23 0
5 -12 34 -26 64 -25 50 -26 56 -14 100 13 44 13 47 -11 65 -46 35 -50 40 -44
57 4 9 10 39 14 66 4 28 15 62 25 77 14 22 16 33 7 63 -9 34 -8 39 18 64 16
14 32 42 35 61 4 19 9 47 13 63 7 34 -8 35 -62 2z m-292 -176 c26 -7 37 -16
37 -29 0 -27 -18 -35 -40 -15 -22 19 -69 17 -81 -5 -4 -8 -10 -27 -14 -42 -3
-16 -10 -28 -15 -28 -14 0 -12 51 4 79 11 20 49 50 66 51 3 0 22 -5 43 -11z"/>
<path d="M2555 2648 c-41 -104 -41 -187 0 -262 l30 -55 -28 -56 c-31 -64 -33
-82 -12 -112 12 -17 15 -48 14 -132 -1 -145 9 -160 68 -98 38 40 44 65 34 145
-4 35 -3 87 2 116 9 47 7 60 -17 119 -31 79 -32 96 -5 149 26 51 23 152 -7
213 -30 63 -47 57 -79 -27z"/>
<path d="M2252 2567 c-12 -7 -38 -37 -58 -67 -19 -30 -47 -65 -62 -77 l-27
-23 25 0 c36 0 67 24 90 71 14 26 32 44 56 54 25 10 35 20 32 32 -4 22 -26 26
-56 10z"/>
<path d="M1922 2360 c-65 -29 -53 -53 15 -30 20 7 38 7 55 1 15 -5 66 -13 115
-17 83 -7 87 -6 73 10 -12 16 -12 19 3 27 35 20 14 25 -101 26 -96 1 -126 -2
-160 -17z"/>
<path d="M2467 2363 c-8 -15 -5 -160 4 -174 29 -47 66 105 39 157 -13 23 -34
32 -43 17z"/>
<path d="M2412 768 c-13 -7 -27 -27 -34 -50 -14 -49 7 -100 52 -123 26 -14 29
-18 19 -36 -6 -11 -26 -30 -45 -41 -39 -23 -38 -34 0 -24 36 9 96 65 112 103
17 40 18 123 1 144 -15 19 -51 39 -69 38 -7 0 -23 -5 -36 -11z m68 -109 c0
-43 -12 -56 -33 -34 -22 22 -30 70 -16 96 l12 23 18 -23 c11 -14 19 -39 19
-62z"/>
<path d="M2605 755 c-33 -32 -35 -100 -4 -139 27 -35 77 -36 109 -1 19 21 22
32 18 76 -8 84 -71 117 -123 64z m64 -18 c29 -36 20 -117 -13 -117 -17 0 -26
22 -26 65 0 59 16 79 39 52z"/>
<path d="M2834 773 c-37 -4 -42 -7 -48 -35 -9 -47 -7 -56 14 -63 78 -25 57
-115 -27 -115 -28 0 -34 -3 -23 -10 8 -5 32 -10 52 -10 102 0 138 130 45 163
-25 9 -16 31 14 35 41 6 71 44 32 40 -10 -1 -37 -3 -59 -5z"/>
<path d="M2261 680 l0 -90 28 0 28 0 -8 52 c-5 29 -6 70 -2 90 5 36 4 38 -20
38 l-26 0 0 -90z"/>
</g>
</svg>
