<svg xmlns="http://www.w3.org/2000/svg" viewBox="0 0 3000 1687" preserveAspectRatio="xMidYMid" width="3000" height="1687" xmlns:xlink="http://www.w3.org/1999/xlink" style="display:block;width:3000px;height:1687px;;animation:none"><g><linearGradient y2="0" y1="0" x2="1" x1="0" id="lg-j3aiem2v25"><stop offset="0" stop-color="#872535"></stop>

  
<stop offset="1" stop-color="#ffffff"></stop></linearGradient>
<path opacity="0.4" fill="url(#lg-j3aiem2v25)" d="M0 0L0 635.1199951171875Q214.2899932861328 674.3699951171875 428.57000732421875 648.5700073242188T857.1400146484375 624.8400268554688T1285.7099609375 752.02001953125T1714.2900390625 678.3400268554688T2142.860107421875 698.1099853515625T2571.429931640625 845.7899780273438T3000 885.1500244140625L3000 0Z" style="fill:url('#lg-j3aiem2v25');opacity:0.4;;animation:none"></path>
<path opacity="0.4" fill="url(#lg-j3aiem2v25)" d="M0 0L0 771.2322387695312Q214.2899932861328 870.678955078125 428.57000732421875 840.4029541015625T857.1400146484375 738.8157958984375T1285.7099609375 783.5095825195312T1714.2900390625 722.2853393554688T2142.860107421875 732.3645629882812T2571.429931640625 765.3848266601562T3000 678.58251953125L3000 0Z" style="fill:url('#lg-j3aiem2v25');opacity:0.4;;animation:none"></path>
<path opacity="0.4" fill="url(#lg-j3aiem2v25)" d="M0 0L0 710.920654296875Q214.2899932861328 799.3013916015625 428.57000732421875 778.3007202148438T857.1400146484375 859.851806640625T1285.7099609375 845.4727783203125T1714.2900390625 774.3408203125T2142.860107421875 626.1914672851562T2571.429931640625 657.9667358398438T3000 792.1990966796875L3000 0Z" style="fill:url('#lg-j3aiem2v25');opacity:0.4;;animation:none"></path>
<path opacity="0.4" fill="url(#lg-j3aiem2v25)" d="M0 0L0 872.3724365234375Q214.2899932861328 800.1429443359375 428.57000732421875 773.0594482421875T857.1400146484375 686.2748413085938T1285.7099609375 690.6728515625T1714.2900390625 756.97021484375T2142.860107421875 824.6384887695312T2571.429931640625 813.0107421875T3000 601.4949340820312L3000 0Z" style="fill:url('#lg-j3aiem2v25');opacity:0.4;;animation:none"></path>
<path opacity="0.4" fill="url(#lg-j3aiem2v25)" d="M0 0L0 846.6759643554688Q214.2899932861328 775.9541625976562 428.57000732421875 735.9611206054688T857.1400146484375 795.0223388671875T1285.7099609375 853.1771240234375T1714.2900390625 698.0485229492188T2142.860107421875 625.7971801757812T2571.429931640625 661.5289916992188T3000 638.1011962890625L3000 0Z" style="fill:url('#lg-j3aiem2v25');opacity:0.4;;animation:none"></path>
<g></g></g><!-- [ldio] generated by https://loading.io --></svg>