<svg width="1600" height="1400" viewBox="0 0 600 400" xmlns="http://www.w3.org/2000/svg">
  <!-- Animated Wave (Blue) -->
  <path id="animatedWaveBlue" 
        d="M 0 200 
           Q 60 100, 120 200 
           T 240 200 
           T 360 200 
           T 480 200 
           T 600 200"
        stroke="#3498db" stroke-width="3" fill="none">
    <animate attributeName="d"
             values="
               M 0 200 Q 60 100, 120 200 T 240 200 T 360 200 T 480 200 T 600 200;
               M 0 200 Q 60 300, 120 200 T 240 200 T 360 200 T 480 200 T 600 200;
               M 0 200 Q 60 100, 120 200 T 240 200 T 360 200 T 480 200 T 600 200"
             dur="3s" repeatCount="indefinite" />
  </path>

  <!-- Animated Wave (Red, Smaller Wavelength) -->
  <path id="animatedWaveRed" 
        d="M 0 200 
           Q 30 150, 60 200 
           T 120 200 
           T 180 200 
           T 240 200 
           T 300 200 
           T 360 200 
           T 420 200 
           T 480 200 
           T 540 200 
           T 600 200"
        stroke="#e74c3c" stroke-width="3" fill="none">
    <animate attributeName="d"
             values="
               M 0 200 Q 30 150, 60 200 T 120 200 T 180 200 T 240 200 T 300 200 T 360 200 T 420 200 T 480 200 T 540 200 T 600 200;
               M 0 200 Q 30 250, 60 200 T 120 200 T 180 200 T 240 200 T 300 200 T 360 200 T 420 200 T 480 200 T 540 200 T 600 200;
               M 0 200 Q 30 150, 60 200 T 120 200 T 180 200 T 240 200 T 300 200 T 360 200 T 420 200 T 480 200 T 540 200 T 600 200"
             dur="1.5s" repeatCount="indefinite" />
  </path>

  <!-- Animated Wave (Green, Even Smaller Wavelength) -->
  <path id="animatedWaveGreen" 
        d="M 0 200 
           Q 20 150, 40 200 
           T 80 200 
           T 120 200 
           T 160 200 
           T 200 200 
           T 240 200 
           T 280 200 
           T 320 200 
           T 360 200 
           T 400 200 
           T 440 200 
           T 480 200 
           T 520 200 
           T 560 200 
           T 600 200"
        stroke="#2ecc71" stroke-width="3" fill="none">
    <animate attributeName="d"
             values="
               M 0 200 Q 20 150, 40 200 T 80 200 T 120 200 T 160 200 T 200 200 T 240 200 T 280 200 T 320 200 T 360 200 T 400 200 T 440 200 T 480 200 T 520 200 T 560 200 T 600 200;
               M 0 200 Q 20 250, 40 200 T 80 200 T 120 200 T 160 200 T 200 200 T 240 200 T 280 200 T 320 200 T 360 200 T 400 200 T 440 200 T 480 200 T 520 200 T 560 200 T 600 200;
               M 0 200 Q 20 150, 40 200 T 80 200 T 120 200 T 160 200 T 200 200 T 240 200 T 280 200 T 320 200 T 360 200 T 400 200 T 440 200 T 480 200 T 520 200 T 560 200 T 600 200"
             dur="1s" repeatCount="indefinite" />
  </path>
</svg>


